<svg id="Layer_1" data-name="Layer 1" xmlns="http://www.w3.org/2000/svg" viewBox="0 0 907.09 396.85"><defs><style>.cls-1{fill:#f43873;}</style></defs><path class="cls-1" d="M201.65,129.51c0-25.3-14.32-39.41-35.64-35.09-.33.07-.65.18-1,.25l0,0s-39.35,5.06-39.35,54.5V258.8c0,18.43-14,36.26-31.32,39.76l-5.69,1.15c-17.27,3.5-31.32-8.65-31.32-27.08v-66.1a31,31,0,0,0,11.68-.25c21.06-4.26,36.34-25.33,36.34-50.1,0-25.3-14.32-39.4-35.64-35.09-.33.07-.65.18-1,.26l0,0s-39.35,5.05-39.35,54.49V278.29c0,34.86,26.58,55.36,59.25,48.74l5.69-1.15c32.68-6.61,59.26-37.87,59.26-72.73V179.86a31.05,31.05,0,0,0,11.68-.25C186.37,175.35,201.65,154.28,201.65,129.51ZM80.4,161.39c0,9.69-5,17-12.6,18.5s-12.74-3.83-12.74-13.37,5-16.82,12.74-18.38S80.4,151.79,80.4,161.39Zm83.75-8.19c-7.62,1.54-12.74-3.84-12.74-13.37s5-16.82,12.74-18.38,12.6,3.65,12.6,13.25S171.81,151.65,164.15,153.2Z"/><path class="cls-1" d="M158.3,319.17a10.81,10.81,0,0,0-14.61,4.27c-.53,1-13.26,23.36-41.63,24.65a10.78,10.78,0,1,0,1,21.54c40.84-1.86,58.85-34.53,59.6-35.92A10.76,10.76,0,0,0,158.3,319.17Z"/><path class="cls-1" d="M421.24,116.09a11.83,11.83,0,0,0-1.26-.82c-35.7-19.93-68.22-1.65-69.59-.86a10.78,10.78,0,0,0,10.71,18.71c.95-.53,23.58-12.86,48.37,1a10.78,10.78,0,0,0,11.77-18Z"/><path class="cls-1" d="M863,196.11c-1,.39-25.2,9.28-47.7-8A10.78,10.78,0,0,0,801,204.15a9.74,9.74,0,0,0,1.12,1c32.4,24.95,67.25,11.62,68.71,11A10.78,10.78,0,0,0,863,196.11Z"/><path class="cls-1" d="M242.17,179.44c-16,3.22-27.86,13.08-32.61,22.63v-8.54a4.11,4.11,0,0,0-4.93-4l-19.62,4a4.11,4.11,0,0,0-3.3,4V343.32a4.12,4.12,0,0,0,4.93,4l20.49-4.14a4.1,4.1,0,0,0,3.3-4V288.74c5.18,6.41,16,10.34,30.66,7.38,30-6.06,50.09-35,50.09-68.68C291.18,194.42,273.26,173.17,242.17,179.44Zm-5.62,90.68c-14.68,3-26.55-6.4-26.55-26.07s11.87-33.61,26.55-36.57,26.35,6.22,26.35,25.89C262.9,253.27,251.24,267.16,236.55,270.12Z"/><path class="cls-1" d="M374.31,152.77c-16,3.23-27.85,13.09-32.6,22.64v-8.54a4.12,4.12,0,0,0-4.93-4l-19.62,4a4.12,4.12,0,0,0-3.3,4V316.66a4.11,4.11,0,0,0,4.92,4l18.36-3.7a6.78,6.78,0,0,0,5.43-6.64V262.07c5.19,6.42,16,10.35,30.66,7.38,30-6.05,50.1-35,50.1-68.68C423.33,167.76,405.41,146.5,374.31,152.77Zm-5.61,90.69c-14.68,3-26.56-6.4-26.56-26.07S354,183.78,368.7,180.82,395,187,395,206.71C395,226.61,383.38,240.5,368.7,243.46Z"/><path class="cls-1" d="M506.46,125.66c-15.76,3.18-27.42,12.77-32.17,21.64V87.65a4.11,4.11,0,0,0-4.93-4l-20.06,4a4.1,4.1,0,0,0-3.3,4V247a4.11,4.11,0,0,0,4.93,4l19.62-4a4.12,4.12,0,0,0,3.31-4V232.86c5.61,8.37,16.84,12.89,31.52,9.93,30.23-6.1,50.09-35.21,50.09-68.91C555.47,140.87,537.55,119.38,506.46,125.66Zm-6,91.22c-14.46,2.92-26.55-6.18-26.55-26.3,0-20.36,12.09-33.88,26.55-36.79,14.69-3,26.35,5.76,26.35,26.11S515.1,213.92,500.41,216.88Z"/><path class="cls-1" d="M622.41,101.81c-27.21,5.49-52.25,33.61-52.25,69.11,0,37.54,25.69,54.29,54.84,48.41a62.53,62.53,0,0,0,46.83-40.12,4.12,4.12,0,0,0-3.45-5.47L652.59,172a4.07,4.07,0,0,0-4.22,2.49c-3.8,9.3-11,16.55-23.15,19-14.25,2.88-26.13-5.35-26.78-19.92l72-14.52a5.37,5.37,0,0,0,4.32-5c.09-1.58.16-3.43.16-5.22C674.88,113.15,655.23,95.19,622.41,101.81Zm-23.32,51.06c.65-10.31,8.85-23.72,23.75-26.73,16.41-3.31,23.32,6.15,23.75,17.14Z"/><path class="cls-1" d="M785,166V111.29c0-22.39-12.52-39.76-46.21-33-25.88,5.23-40.9,24.1-44.73,40.83a4.13,4.13,0,0,0,3.92,5.09l17.16.35a4.14,4.14,0,0,0,4.1-3.3A24.69,24.69,0,0,1,739,102.47c12.09-2.43,17.92,3,17.92,10.86,0,3.85-1.94,7.4-8,9.53l-26.12,9.34c-17.71,6.29-31.75,20.2-31.75,40.1,0,17.41,13.82,30.68,36.5,26.11a45.23,45.23,0,0,0,31.3-22.83c0,2.62.17,5.88.44,8.67a4.09,4.09,0,0,0,4.9,3.59l18.31-3.69a4.09,4.09,0,0,0,3.27-4.46A137,137,0,0,1,785,166Zm-28.07-21.7c0,19.68-11.23,28.05-23.32,30.49-9.28,1.87-13.82-3.55-13.82-10.11,0-8.59,5.83-14.06,13.17-16.67l24-8.68Z"/><path class="cls-1" d="M805.91,94.86,820.2,92v51.79c0,21.48,12.95,31.76,33.68,27.57a52.27,52.27,0,0,0,14-4.7,4.12,4.12,0,0,0,2.21-3.66V146.25a4.12,4.12,0,0,0-5.24-3.95c-1.18.32-2.42.63-3.61.87-8.2,1.66-12.52-.64-12.52-10.37V86.22l18.07-3.65a4.1,4.1,0,0,0,3.3-4V60.25a4.11,4.11,0,0,0-4.93-4L848.7,59.54V31.32a4.11,4.11,0,0,0-4.93-4l-17.68,3.57a4.11,4.11,0,0,0-3.3,4V47.13c0,9.95-5.18,18.68-16.41,20.95l-2.1.42a4.11,4.11,0,0,0-3.3,4V90.82A4.12,4.12,0,0,0,805.91,94.86Z"/></svg>